<svg xmlns="http://www.w3.org/2000/svg" xmlns:xlink="http://www.w3.org/1999/xlink" viewBox="0 0 1036.96 174.87"><defs><style>.a{fill:none;}.b{fill:#fff;}.c{fill:#ce202a;}.d{fill:#222021;}.e{clip-path:url(#a);}.f{fill:#f8cf18;}.g{fill:#1e4597;}.h{fill:#cc2029;}.i{fill:#221f1f;}</style><clipPath id="a"><circle class="a" cx="165.53" cy="89.11" r="37.23"/></clipPath></defs><path class="b" d="M616.23,134.14a45,45,0,1,1,45-45A45.08,45.08,0,0,1,616.23,134.14Z"/><path class="c" d="M616.23,53.65a35.47,35.47,0,1,1-35.47,35.47,35.51,35.51,0,0,1,35.47-35.47m0-19.09a54.56,54.56,0,1,0,54.56,54.56,54.56,54.56,0,0,0-54.56-54.56Z"/><path class="d" d="M0,0H37.36V72.76L66.27,37.17h42.28l-37,42.67,38,63.72H68.44L47,107.38l-9.64,11.21v25H0Z"/><path class="d" d="M234.5,90.86v-.4c0-34.61,21.64-55.65,46.81-55.65,16.13,0,25.57,7.27,32.65,15.34V0h37.36V143.56H314V129.4c-7.28,8.85-16.52,16.52-32.45,16.52C256.34,145.92,234.5,124.88,234.5,90.86Zm80-.4v-.39c0-14-9.63-24-21.63-24s-21.83,9.83-21.83,24v.39c0,14.16,9.84,24.19,21.83,24.19S314.54,104.62,314.54,90.46Z"/><path class="d" d="M371.38,0h38.94V27.53H371.38Zm.79,37.17h37.37V143.56H372.17Z"/><path class="d" d="M429.4,163.23l12-24.78c11.4,6.29,22.81,10,37.16,10,18.69,0,27.93-9.24,27.93-26.16v-4.13c-7.47,8.66-17.31,15.93-32.84,15.93-26.16,0-47.2-18.88-47.2-49.36v-.39c0-30.68,21.43-49.56,46-49.56,15.93,0,25.36,6.49,33.43,14.95V37.17h37.36V118c0,19.47-4.32,33-13.76,42.47-9.64,9.64-24.58,14.95-46.81,14.95C462,175.42,444.74,171.09,429.4,163.23Zm77.09-78.47v-.39c0-11.8-9.05-20.45-21.64-20.45-12.78,0-21.82,8.84-21.82,20.64V85c0,11.8,9,20.45,21.82,20.45C497.44,105.41,506.49,96.56,506.49,84.76Z"/><path class="d" d="M685.52,105.21h38.94v38.35H685.52Z"/><path class="d" d="M743,37.17h37.36V51.72C787.2,42.87,797,34.81,812,34.81c14.15,0,25,6.29,30.67,17.3,9.25-10.61,20.07-17.3,35.6-17.3,22.62,0,36.38,14.16,36.38,38.94v69.81H877.27V85.74c0-11.6-5.71-17.7-14.55-17.7s-15.34,6.1-15.34,17.7v57.82H810V85.74c0-11.6-5.7-17.7-14.55-17.7s-15.15,6.1-15.15,17.7v57.82H743Z"/><path class="d" d="M929.59,90.86v-.4c0-31.07,22.22-55.65,53.68-55.65,36.78,0,53.69,26.94,53.69,58.21,0,2.36,0,5.11-.2,7.67H965.57c2.95,11.6,11.41,17.5,23,17.5,8.85,0,15.93-3.34,23.6-10.81l20.65,17.11c-10.22,13-25,21.63-46.21,21.63C953.18,146.12,929.59,123.89,929.59,90.86ZM1002,81.61c-1.38-11.8-8.26-19.27-18.49-19.27C973.64,62.34,967,70,965,81.61Z"/><g class="e"><ellipse class="b" cx="161.92" cy="90.01" rx="81.32" ry="70.16"/><circle class="f" cx="146.06" cy="89.11" r="18.17"/><path class="f" d="M146.06,89.11,139.67,57l1.91-1.91,2.12-2,2.36-2.36,2.36,2.36,2.12,2L152.45,57Z"/><path class="f" d="M146.06,89.11l6.39,32.13-1.91,1.91-2.12,2-2.36,2.36-2.36-2.36-2.12-2-1.91-1.91Z"/><path class="f" d="M146.06,89.11l32.13-6.39,1.91,1.91,2,2.12,2.36,2.36-2.36,2.36-2,2.12-1.91,1.91Z"/><path class="f" d="M146.06,89.11,113.94,95.5,112,93.59l-2-2.12-2.36-2.36,2.36-2.36,2-2.12,1.91-1.91Z"/><path class="f" d="M146.06,89.11l18.2-27.23H167l2.89.1h3.34v3.34l.11,2.89v2.7Z"/><path class="f" d="M146.06,89.11l-18.2,27.24h-2.7l-2.89-.11h-3.34V112.9l-.1-2.89v-2.7Z"/><path class="f" d="M146.06,89.11l27.24,18.2V110l-.11,2.89v3.34h-3.34l-2.89.11h-2.7Z"/><path class="f" d="M146.06,89.11l-27.23-18.2v-2.7l.1-2.89V62h3.34l2.89-.1h2.7Z"/><path class="f" d="M199.91,89.11,196,90.48l-.08,4.18-2.53-3.33-4,1.21,2.39-3.43-2.39-3.43,4,1.21,2.53-3.33.08,4.18Z"/><path class="f" d="M179.59,115.89l.77-4-3.5-2.12,4.06-.51.93-4,1.74,3.7,4.07-.34-3,2.79,1.59,3.77-3.58-2Z"/><path class="f" d="M179.59,61.84l3.1,2.67,3.58-2-1.59,3.77,3,2.8-4.07-.35-1.74,3.7-.93-4L176.86,68l3.5-2.11Z"/></g><path class="g" d="M166.09,53.83a35.32,35.32,0,0,1,35.28,35.28h19a54.27,54.27,0,1,0-108.53,0h19A35.33,35.33,0,0,1,166.09,53.83Z"/><path class="h" d="M166.09,143.38a54.26,54.26,0,0,0,54.26-54.27h-19a35.29,35.29,0,1,1-70.57,0h-19A54.27,54.27,0,0,0,166.09,143.38Z"/><path class="i" d="M624.4,132.7a5.76,5.76,0,0,1-4.5-9.33l11.12-14L605.6,125.66a5.75,5.75,0,0,1-7.61-8.41L617.2,93.06l-29.77,21a5.75,5.75,0,0,1-7.87-8.21l20.35-26.37L578.76,94.14a5.75,5.75,0,0,1-8-8L597.07,48a5.75,5.75,0,1,1,9.46,6.53L598.08,66.8,623.79,49a5.75,5.75,0,0,1,7.82,8.24L612,82.65l31.3-22.11a5.75,5.75,0,0,1,7.82,8.27L628.47,97.36l25.4-16.28a5.75,5.75,0,0,1,7.6,8.41l-32.56,41A5.75,5.75,0,0,1,624.4,132.7Z"/><path class="d" d="M616.23,34.73a54.38,54.38,0,1,1-54.38,54.38,54.38,54.38,0,0,1,54.38-54.38m0-6.52a60.9,60.9,0,1,0,60.9,60.9,61,61,0,0,0-60.9-60.9Z"/><path class="d" d="M166.09,34.73a54.38,54.38,0,1,1-54.38,54.38,54.38,54.38,0,0,1,54.38-54.38m0-6.52A60.9,60.9,0,1,0,227,89.11a61,61,0,0,0-60.9-60.9Z"/></svg>